<?xml version="1.0" encoding="UTF-8" standalone="no"?>
<!DOCTYPE svg PUBLIC "-//W3C//DTD SVG 1.1//EN" "http://www.w3.org/Graphics/SVG/1.1/DTD/svg11.dtd">
<svg width="100%" height="100%" viewBox="0 0 90 90" version="1.1" xmlns="http://www.w3.org/2000/svg" xmlns:xlink="http://www.w3.org/1999/xlink" xml:space="preserve" xmlns:serif="http://www.serif.com/" style="fill-rule:evenodd;clip-rule:evenodd;stroke-linejoin:round;stroke-miterlimit:2;">
    <g id="chatBoxes" transform="matrix(0.18,0,0,0.3,0,0)">
        <rect x="0" y="0" width="500" height="300" style="fill:rgb(240,115,110);"/>
        <g>
            <g transform="matrix(-1.66032,0.0871557,0.14526,0.996195,336.769,-59.1727)">
                <path d="M158.317,142.633L99.462,142.633C93.282,142.633 88.272,137.623 88.272,131.443L88.272,83.778C88.272,77.598 93.282,72.588 99.462,72.588L177.082,72.588C183.262,72.588 188.272,77.598 188.272,83.778L188.272,172.588L158.317,142.633Z" style="fill:white;fill-opacity:0.4;"/>
            </g>
            <g transform="matrix(1.66032,0.0871557,-0.14526,0.996195,274.342,90.8273)">
                <path d="M158.317,142.633L99.462,142.633C93.282,142.633 88.272,137.623 88.272,131.443L88.272,83.778C88.272,77.598 93.282,72.588 99.462,72.588L177.082,72.588C183.262,72.588 188.272,77.598 188.272,83.778L188.272,172.588L158.317,142.633Z" style="fill:white;fill-opacity:0.4;"/>
            </g>
            <g transform="matrix(1.66032,0.0871557,-0.14526,0.996195,163.231,-59.1727)">
                <path d="M158.317,142.633L99.462,142.633C93.282,142.633 88.272,137.623 88.272,131.443L88.272,83.778C88.272,77.598 93.282,72.588 99.462,72.588L177.082,72.588C183.262,72.588 188.272,77.598 188.272,83.778L188.272,172.588L158.317,142.633Z" style="fill:white;fill-opacity:0.4;"/>
            </g>
            <g transform="matrix(-1.66032,0.0871557,0.14526,0.996195,447.88,90.8273)">
                <path d="M158.317,142.633L99.462,142.633C93.282,142.633 88.272,137.623 88.272,131.443L88.272,83.778C88.272,77.598 93.282,72.588 99.462,72.588L177.082,72.588C183.262,72.588 188.272,77.598 188.272,83.778L188.272,172.588L158.317,142.633Z" style="fill:white;fill-opacity:0.4;"/>
            </g>
            <g transform="matrix(1.66032,0.0871557,-0.14526,0.996195,-225.658,90.8273)">
                <path d="M158.317,142.633L99.462,142.633C93.282,142.633 88.272,137.623 88.272,131.443L88.272,83.778C88.272,77.598 93.282,72.588 99.462,72.588L177.082,72.588C183.262,72.588 188.272,77.598 188.272,83.778L188.272,172.588L158.317,142.633Z" style="fill:white;fill-opacity:0.4;"/>
            </g>
        </g>
    </g>
</svg>
