<?xml version="1.0" encoding="UTF-8" standalone="no"?>
<!DOCTYPE svg PUBLIC "-//W3C//DTD SVG 1.1//EN" "http://www.w3.org/Graphics/SVG/1.1/DTD/svg11.dtd">
<svg width="100%" height="100%" viewBox="0 0 24 24" version="1.1" xmlns="http://www.w3.org/2000/svg" xmlns:xlink="http://www.w3.org/1999/xlink" xml:space="preserve" xmlns:serif="http://www.serif.com/" style="fill-rule:evenodd;clip-rule:evenodd;stroke-linejoin:round;stroke-miterlimit:2;">
    <g transform="matrix(0.74348,0,0,0.74348,3.08953,3.06978)">
        <path d="M5.309,18.711L2.031,18.711C1.617,18.711 1.281,18.376 1.281,17.961L1.281,1.954C1.281,1.54 1.617,1.204 2.031,1.204L18.038,1.204C18.453,1.204 18.788,1.54 18.788,1.954L18.788,5.232L22.057,5.232C22.471,5.232 22.807,5.568 22.807,5.982L22.807,21.98C22.807,22.394 22.471,22.73 22.057,22.73L6.059,22.73C5.645,22.73 5.309,22.394 5.309,21.98L5.309,18.711ZM21.307,6.732L21.307,21.23L6.809,21.23L6.809,6.732L21.307,6.732ZM17.288,5.232L17.288,2.704L2.781,2.704L2.781,17.211L5.309,17.211L5.309,5.982C5.309,5.568 5.645,5.232 6.059,5.232L17.288,5.232Z"/>
    </g>
</svg>
