<?xml version="1.0" encoding="UTF-8" standalone="no"?>
<!DOCTYPE svg PUBLIC "-//W3C//DTD SVG 1.1//EN" "http://www.w3.org/Graphics/SVG/1.1/DTD/svg11.dtd">
<svg width="100%" height="100%" viewBox="0 0 140 140" version="1.1" xmlns="http://www.w3.org/2000/svg" xmlns:xlink="http://www.w3.org/1999/xlink" xml:space="preserve" xmlns:serif="http://www.serif.com/" style="fill-rule:evenodd;clip-rule:evenodd;stroke-linejoin:round;stroke-miterlimit:2;">
    <g transform="matrix(1,0,0,1,-50,-50)">
        <g transform="matrix(1.01562,0,0,1.25,0,4.65625e-06)">
            <g transform="matrix(0.518519,0,0,0.518519,-227.415,-11.6325)">
                <g transform="matrix(0.984615,0,0,0.8,0,-3.725e-06)">
                    <rect x="541.93" y="124.471" width="270" height="270" style="fill:rgb(2,14,30);"/>
                    <path d="M813.859,124.471C813.859,123.406 812.995,122.543 811.93,122.543L541.93,122.543C540.865,122.543 540.001,123.406 540.001,124.471L540.001,394.471C540.001,395.536 540.865,396.4 541.93,396.4L811.93,396.4C812.995,396.4 813.859,395.536 813.859,394.471L813.859,124.471ZM811.93,124.471L541.93,124.471L541.93,394.471L811.93,394.471L811.93,124.471Z" style="fill:white;"/>
                </g>
                <g transform="matrix(1.22936,0,0,0.998857,281.616,-55.2794)">
                    <g transform="matrix(70.2009,0,0,70.2009,231.619,253.268)">
                        <path d="M0.091,-0.718L0.234,-0.718C0.314,-0.718 0.368,-0.715 0.396,-0.708C0.439,-0.699 0.474,-0.678 0.5,-0.646C0.527,-0.614 0.541,-0.574 0.541,-0.527C0.541,-0.488 0.531,-0.454 0.513,-0.424C0.495,-0.394 0.468,-0.372 0.434,-0.357C0.4,-0.342 0.353,-0.334 0.292,-0.333L0.551,-0L0.462,-0L0.204,-0.333L0.163,-0.333L0.163,-0L0.091,-0L0.091,-0.718ZM0.163,-0.648L0.163,-0.404L0.287,-0.403C0.335,-0.403 0.37,-0.407 0.393,-0.416C0.416,-0.426 0.434,-0.44 0.447,-0.46C0.46,-0.48 0.466,-0.503 0.466,-0.527C0.466,-0.551 0.46,-0.573 0.447,-0.593C0.434,-0.613 0.417,-0.627 0.395,-0.635C0.374,-0.644 0.339,-0.648 0.29,-0.648L0.163,-0.648Z" style="fill:rgb(255,0,0);fill-rule:nonzero;"/>
                    </g>
                    <g transform="matrix(70.2009,0,0,70.2009,274.226,253.268)">
                        <path d="M0.381,-0.718L0.716,-0L0.638,-0L0.525,-0.236L0.216,-0.236L0.104,-0L0.024,-0L0.363,-0.718L0.381,-0.718ZM0.372,-0.566L0.249,-0.306L0.494,-0.306L0.372,-0.566Z" style="fill:rgb(255,0,0);fill-rule:nonzero;"/>
                    </g>
                    <g transform="matrix(70.2009,0,0,70.2009,326.157,253.268)">
                        <path d="M0.047,-0.718L0.121,-0.718L0.267,-0.201L0.473,-0.718L0.488,-0.718L0.692,-0.201L0.841,-0.718L0.914,-0.718L0.708,-0L0.694,-0L0.481,-0.543L0.264,-0L0.251,-0L0.047,-0.718Z" style="fill:rgb(255,0,0);fill-rule:nonzero;"/>
                    </g>
                    <g transform="matrix(70.2009,0,0,70.2009,234.721,323.469)">
                        <path d="M0.016,-0.648L0.016,-0.718L0.41,-0.718L0.41,-0.648L0.25,-0.648L0.25,-0L0.176,-0L0.176,-0.648L0.016,-0.648Z" style="fill:rgb(255,0,0);fill-rule:nonzero;"/>
                    </g>
                    <g transform="matrix(70.2009,0,0,70.2009,264.611,323.469)">
                        <path d="M0.381,-0.718L0.716,-0L0.638,-0L0.525,-0.236L0.216,-0.236L0.104,-0L0.024,-0L0.363,-0.718L0.381,-0.718ZM0.372,-0.566L0.249,-0.306L0.494,-0.306L0.372,-0.566Z" style="fill:rgb(255,0,0);fill-rule:nonzero;"/>
                    </g>
                    <g transform="matrix(70.2009,0,0,70.2009,316.542,323.469)">
                        <path d="M0.087,-0.718L0.159,-0.718L0.159,-0.069L0.436,-0.069L0.436,-0L0.087,-0L0.087,-0.718Z" style="fill:rgb(255,0,0);fill-rule:nonzero;"/>
                    </g>
                    <g transform="matrix(70.2009,0,0,70.2009,348.969,323.469)">
                        <path d="M0.087,-0.718L0.161,-0.718L0.161,-0.449L0.448,-0.718L0.544,-0.718L0.199,-0.396L0.571,-0L0.475,-0L0.161,-0.335L0.161,-0L0.087,-0L0.087,-0.718Z" style="fill:rgb(255,0,0);fill-rule:nonzero;"/>
                    </g>
                </g>
            </g>
        </g>
    </g>
</svg>
